{
	"asset":{
		"generator":"Khronos glTF Blender I/O v3.6.27",
		"version":"2.0"
	},
	"scene":0,
	"scenes":[
		{
			"name":"Scene",
			"nodes":[
				11
			]
		}
	],
	"nodes":[
		{
			"name":"foot.L",
			"rotation":[
				-0.6944584846496582,
				6.706581189064309e-05,
				0.005985336843878031,
				0.7195078730583191
			],
			"scale":[
				1,
				1.0000001192092896,
				1.0000001192092896
			],
			"translation":[
				-1.7967067833524197e-09,
				0.8530635833740234,
				-1.3969838619232178e-09
			]
		},
		{
			"children":[
				0
			],
			"name":"leg1.L",
			"rotation":[
				0.03028244711458683,
				-0.0007473333389498293,
				-0.022498110309243202,
				0.9992879033088684
			],
			"scale":[
				1,
				1.0000001192092896,
				1
			],
			"translation":[
				-2.7907209876332217e-09,
				0.9242448806762695,
				3.2656544135534205e-11
			]
		},
		{
			"children":[
				1
			],
			"name":"leg2.L",
			"rotation":[
				0.000365914951544255,
				1.1090371572208824e-06,
				0.01576964184641838,
				0.9998756051063538
			],
			"scale":[
				0.9999999403953552,
				1,
				1
			],
			"translation":[
				-1.540789007492549e-08,
				0.09075955301523209,
				2.914646302087931e-11
			]
		},
		{
			"children":[
				2
			],
			"name":"bone.L",
			"rotation":[
				2.5761767119547585e-07,
				4.1635811243168064e-08,
				0.9992908239364624,
				0.03765556588768959
			],
			"scale":[
				1.0000079870224,
				0.9999999403953552,
				1
			],
			"translation":[
				-0.3655420243740082,
				0.13519901037216187,
				0.0219293050467968
			]
		},
		{
			"name":"33.001",
			"translation":[
				3.446842811172246e-11,
				0.14856582880020142,
				7.437113147545915e-10
			]
		},
		{
			"name":"foot.R",
			"rotation":[
				-0.6944584846496582,
				-6.706581189064309e-05,
				-0.005985336843878031,
				0.7195078730583191
			],
			"scale":[
				1,
				1.0000001192092896,
				1.0000001192092896
			],
			"translation":[
				1.7967067833524197e-09,
				0.8530635833740234,
				1.3969838619232178e-09
			]
		},
		{
			"children":[
				5
			],
			"name":"leg1.R",
			"rotation":[
				0.03028244711458683,
				0.0007473333389498293,
				0.022498110309243202,
				0.9992879033088684
			],
			"scale":[
				1,
				1.0000001192092896,
				1
			],
			"translation":[
				2.7907121058490247e-09,
				0.9242448806762695,
				2.7199575924896635e-11
			]
		},
		{
			"children":[
				6
			],
			"name":"leg2.R",
			"rotation":[
				0.00036591236130334437,
				-1.1090767202404095e-06,
				-0.01576964184641838,
				0.9998756051063538
			],
			"scale":[
				0.9999999403953552,
				1,
				1
			],
			"translation":[
				1.540788829856865e-08,
				0.09075955301523209,
				5.475442321767332e-11
			]
		},
		{
			"children":[
				7
			],
			"name":"bone.R",
			"rotation":[
				4.95962069635425e-07,
				-5.319180118590339e-08,
				-0.9992908239364624,
				0.03765556588768959
			],
			"scale":[
				1.0000079870224,
				0.9999999403953552,
				1
			],
			"translation":[
				0.3593033254146576,
				0.13519901037216187,
				0.021929478272795677
			]
		},
		{
			"children":[
				3,
				4,
				8
			],
			"name":"33",
			"rotation":[
				0,
				1.1920928955078125e-07,
				0,
				1
			],
			"translation":[
				0.003119351342320442,
				-0.6057518124580383,
				-0.02260550856590271
			]
		},
		{
			"mesh":0,
			"name":"Plane",
			"skin":0
		},
		{
			"children":[
				10,
				9
			],
			"name":"Armature",
			"translation":[
				0,
				1.600000023841858,
				0
			]
		}
	],
	"animations":[
		{
			"channels":[
				{
					"sampler":0,
					"target":{
						"node":9,
						"path":"translation"
					}
				},
				{
					"sampler":1,
					"target":{
						"node":9,
						"path":"rotation"
					}
				},
				{
					"sampler":2,
					"target":{
						"node":9,
						"path":"scale"
					}
				},
				{
					"sampler":3,
					"target":{
						"node":3,
						"path":"translation"
					}
				},
				{
					"sampler":4,
					"target":{
						"node":3,
						"path":"rotation"
					}
				},
				{
					"sampler":5,
					"target":{
						"node":3,
						"path":"scale"
					}
				},
				{
					"sampler":6,
					"target":{
						"node":2,
						"path":"translation"
					}
				},
				{
					"sampler":7,
					"target":{
						"node":2,
						"path":"rotation"
					}
				},
				{
					"sampler":8,
					"target":{
						"node":2,
						"path":"scale"
					}
				},
				{
					"sampler":9,
					"target":{
						"node":1,
						"path":"translation"
					}
				},
				{
					"sampler":10,
					"target":{
						"node":1,
						"path":"rotation"
					}
				},
				{
					"sampler":11,
					"target":{
						"node":1,
						"path":"scale"
					}
				},
				{
					"sampler":12,
					"target":{
						"node":0,
						"path":"translation"
					}
				},
				{
					"sampler":13,
					"target":{
						"node":0,
						"path":"rotation"
					}
				},
				{
					"sampler":14,
					"target":{
						"node":0,
						"path":"scale"
					}
				},
				{
					"sampler":15,
					"target":{
						"node":4,
						"path":"translation"
					}
				},
				{
					"sampler":16,
					"target":{
						"node":4,
						"path":"rotation"
					}
				},
				{
					"sampler":17,
					"target":{
						"node":4,
						"path":"scale"
					}
				},
				{
					"sampler":18,
					"target":{
						"node":8,
						"path":"translation"
					}
				},
				{
					"sampler":19,
					"target":{
						"node":8,
						"path":"rotation"
					}
				},
				{
					"sampler":20,
					"target":{
						"node":8,
						"path":"scale"
					}
				},
				{
					"sampler":21,
					"target":{
						"node":7,
						"path":"translation"
					}
				},
				{
					"sampler":22,
					"target":{
						"node":7,
						"path":"rotation"
					}
				},
				{
					"sampler":23,
					"target":{
						"node":7,
						"path":"scale"
					}
				},
				{
					"sampler":24,
					"target":{
						"node":6,
						"path":"translation"
					}
				},
				{
					"sampler":25,
					"target":{
						"node":6,
						"path":"rotation"
					}
				},
				{
					"sampler":26,
					"target":{
						"node":6,
						"path":"scale"
					}
				},
				{
					"sampler":27,
					"target":{
						"node":5,
						"path":"translation"
					}
				},
				{
					"sampler":28,
					"target":{
						"node":5,
						"path":"rotation"
					}
				},
				{
					"sampler":29,
					"target":{
						"node":5,
						"path":"scale"
					}
				},
				{
					"sampler":30,
					"target":{
						"node":11,
						"path":"translation"
					}
				},
				{
					"sampler":31,
					"target":{
						"node":11,
						"path":"rotation"
					}
				},
				{
					"sampler":32,
					"target":{
						"node":11,
						"path":"scale"
					}
				}
			],
			"name":"Action",
			"samplers":[
				{
					"input":13,
					"interpolation":"STEP",
					"output":14
				},
				{
					"input":13,
					"interpolation":"STEP",
					"output":15
				},
				{
					"input":13,
					"interpolation":"STEP",
					"output":16
				},
				{
					"input":13,
					"interpolation":"STEP",
					"output":17
				},
				{
					"input":13,
					"interpolation":"STEP",
					"output":18
				},
				{
					"input":13,
					"interpolation":"STEP",
					"output":19
				},
				{
					"input":13,
					"interpolation":"STEP",
					"output":20
				},
				{
					"input":21,
					"interpolation":"LINEAR",
					"output":22
				},
				{
					"input":13,
					"interpolation":"LINEAR",
					"output":23
				},
				{
					"input":13,
					"interpolation":"LINEAR",
					"output":24
				},
				{
					"input":21,
					"interpolation":"LINEAR",
					"output":25
				},
				{
					"input":13,
					"interpolation":"LINEAR",
					"output":26
				},
				{
					"input":13,
					"interpolation":"LINEAR",
					"output":27
				},
				{
					"input":21,
					"interpolation":"LINEAR",
					"output":28
				},
				{
					"input":13,
					"interpolation":"LINEAR",
					"output":29
				},
				{
					"input":13,
					"interpolation":"STEP",
					"output":30
				},
				{
					"input":21,
					"interpolation":"LINEAR",
					"output":31
				},
				{
					"input":13,
					"interpolation":"LINEAR",
					"output":32
				},
				{
					"input":13,
					"interpolation":"STEP",
					"output":33
				},
				{
					"input":13,
					"interpolation":"STEP",
					"output":34
				},
				{
					"input":13,
					"interpolation":"STEP",
					"output":35
				},
				{
					"input":13,
					"interpolation":"STEP",
					"output":36
				},
				{
					"input":21,
					"interpolation":"LINEAR",
					"output":37
				},
				{
					"input":13,
					"interpolation":"STEP",
					"output":38
				},
				{
					"input":13,
					"interpolation":"LINEAR",
					"output":39
				},
				{
					"input":21,
					"interpolation":"LINEAR",
					"output":40
				},
				{
					"input":13,
					"interpolation":"LINEAR",
					"output":41
				},
				{
					"input":13,
					"interpolation":"LINEAR",
					"output":42
				},
				{
					"input":21,
					"interpolation":"LINEAR",
					"output":43
				},
				{
					"input":13,
					"interpolation":"STEP",
					"output":44
				},
				{
					"input":21,
					"interpolation":"LINEAR",
					"output":45
				},
				{
					"input":13,
					"interpolation":"STEP",
					"output":46
				},
				{
					"input":13,
					"interpolation":"STEP",
					"output":47
				}
			]
		},
		{
			"channels":[
				{
					"sampler":0,
					"target":{
						"node":10,
						"path":"translation"
					}
				},
				{
					"sampler":1,
					"target":{
						"node":10,
						"path":"rotation"
					}
				},
				{
					"sampler":2,
					"target":{
						"node":10,
						"path":"scale"
					}
				}
			],
			"name":"Action.001",
			"samplers":[
				{
					"input":13,
					"interpolation":"STEP",
					"output":48
				},
				{
					"input":13,
					"interpolation":"STEP",
					"output":49
				},
				{
					"input":21,
					"interpolation":"LINEAR",
					"output":50
				}
			]
		}
	],
	"materials":[
		{
			"doubleSided":true,
			"name":"Material.005",
			"pbrMetallicRoughness":{
				"baseColorFactor":[
					0.1844746619462967,
					0.4735313355922699,
					0.028426174074411392,
					1
				],
				"metallicFactor":0,
				"roughnessFactor":0.5
			}
		},
		{
			"doubleSided":true,
			"name":"Material.007",
			"pbrMetallicRoughness":{
				"baseColorFactor":[
					0.6172056198120117,
					1,
					0.7156937122344971,
					1
				],
				"metallicFactor":0,
				"roughnessFactor":0.5
			}
		}
	],
	"meshes":[
		{
			"name":"Plane",
			"primitives":[
				{
					"attributes":{
						"POSITION":0,
						"NORMAL":1,
						"TEXCOORD_0":2,
						"JOINTS_0":3,
						"WEIGHTS_0":4
					},
					"indices":5,
					"material":0
				},
				{
					"attributes":{
						"POSITION":6,
						"NORMAL":7,
						"TEXCOORD_0":8,
						"JOINTS_0":9,
						"WEIGHTS_0":10
					},
					"indices":11,
					"material":1
				}
			]
		}
	],
	"skins":[
		{
			"inverseBindMatrices":12,
			"joints":[
				9,
				3,
				2,
				1,
				0,
				4,
				8,
				7,
				6,
				5
			],
			"name":"Armature"
		}
	],
	"accessors":[
		{
			"bufferView":0,
			"componentType":5126,
			"count":22232,
			"max":[
				1.2471058368682861,
				3.445517063140869,
				0.44745349884033203
			],
			"min":[
				-1.2471091747283936,
				-0.9071654677391052,
				-0.9909645318984985
			],
			"type":"VEC3"
		},
		{
			"bufferView":1,
			"componentType":5126,
			"count":22232,
			"type":"VEC3"
		},
		{
			"bufferView":2,
			"componentType":5126,
			"count":22232,
			"type":"VEC2"
		},
		{
			"bufferView":3,
			"componentType":5121,
			"count":22232,
			"type":"VEC4"
		},
		{
			"bufferView":4,
			"componentType":5126,
			"count":22232,
			"type":"VEC4"
		},
		{
			"bufferView":5,
			"componentType":5123,
			"count":115584,
			"type":"SCALAR"
		},
		{
			"bufferView":6,
			"componentType":5126,
			"count":722,
			"max":[
				1.0746742486953735,
				3.273085594177246,
				0.0033266758546233177
			],
			"min":[
				-1.0746774673461914,
				1.1237339973449707,
				0.003326655365526676
			],
			"type":"VEC3"
		},
		{
			"bufferView":7,
			"componentType":5126,
			"count":722,
			"type":"VEC3"
		},
		{
			"bufferView":8,
			"componentType":5126,
			"count":722,
			"type":"VEC2"
		},
		{
			"bufferView":9,
			"componentType":5121,
			"count":722,
			"type":"VEC4"
		},
		{
			"bufferView":10,
			"componentType":5126,
			"count":722,
			"type":"VEC4"
		},
		{
			"bufferView":11,
			"componentType":5123,
			"count":3456,
			"type":"SCALAR"
		},
		{
			"bufferView":12,
			"componentType":5126,
			"count":10,
			"type":"MAT4"
		},
		{
			"bufferView":13,
			"componentType":5126,
			"count":2,
			"max":[
				1.625
			],
			"min":[
				0
			],
			"type":"SCALAR"
		},
		{
			"bufferView":14,
			"componentType":5126,
			"count":2,
			"type":"VEC3"
		},
		{
			"bufferView":15,
			"componentType":5126,
			"count":2,
			"type":"VEC4"
		},
		{
			"bufferView":16,
			"componentType":5126,
			"count":2,
			"type":"VEC3"
		},
		{
			"bufferView":17,
			"componentType":5126,
			"count":2,
			"type":"VEC3"
		},
		{
			"bufferView":18,
			"componentType":5126,
			"count":2,
			"type":"VEC4"
		},
		{
			"bufferView":19,
			"componentType":5126,
			"count":2,
			"type":"VEC3"
		},
		{
			"bufferView":20,
			"componentType":5126,
			"count":2,
			"type":"VEC3"
		},
		{
			"bufferView":21,
			"componentType":5126,
			"count":40,
			"max":[
				1.625
			],
			"min":[
				0
			],
			"type":"SCALAR"
		},
		{
			"bufferView":22,
			"componentType":5126,
			"count":40,
			"type":"VEC4"
		},
		{
			"bufferView":23,
			"componentType":5126,
			"count":2,
			"type":"VEC3"
		},
		{
			"bufferView":24,
			"componentType":5126,
			"count":2,
			"type":"VEC3"
		},
		{
			"bufferView":25,
			"componentType":5126,
			"count":40,
			"type":"VEC4"
		},
		{
			"bufferView":26,
			"componentType":5126,
			"count":2,
			"type":"VEC3"
		},
		{
			"bufferView":27,
			"componentType":5126,
			"count":2,
			"type":"VEC3"
		},
		{
			"bufferView":28,
			"componentType":5126,
			"count":40,
			"type":"VEC4"
		},
		{
			"bufferView":29,
			"componentType":5126,
			"count":2,
			"type":"VEC3"
		},
		{
			"bufferView":30,
			"componentType":5126,
			"count":2,
			"type":"VEC3"
		},
		{
			"bufferView":31,
			"componentType":5126,
			"count":40,
			"type":"VEC4"
		},
		{
			"bufferView":32,
			"componentType":5126,
			"count":2,
			"type":"VEC3"
		},
		{
			"bufferView":33,
			"componentType":5126,
			"count":2,
			"type":"VEC3"
		},
		{
			"bufferView":34,
			"componentType":5126,
			"count":2,
			"type":"VEC4"
		},
		{
			"bufferView":35,
			"componentType":5126,
			"count":2,
			"type":"VEC3"
		},
		{
			"bufferView":36,
			"componentType":5126,
			"count":2,
			"type":"VEC3"
		},
		{
			"bufferView":37,
			"componentType":5126,
			"count":40,
			"type":"VEC4"
		},
		{
			"bufferView":38,
			"componentType":5126,
			"count":2,
			"type":"VEC3"
		},
		{
			"bufferView":39,
			"componentType":5126,
			"count":2,
			"type":"VEC3"
		},
		{
			"bufferView":40,
			"componentType":5126,
			"count":40,
			"type":"VEC4"
		},
		{
			"bufferView":41,
			"componentType":5126,
			"count":2,
			"type":"VEC3"
		},
		{
			"bufferView":42,
			"componentType":5126,
			"count":2,
			"type":"VEC3"
		},
		{
			"bufferView":43,
			"componentType":5126,
			"count":40,
			"type":"VEC4"
		},
		{
			"bufferView":44,
			"componentType":5126,
			"count":2,
			"type":"VEC3"
		},
		{
			"bufferView":45,
			"componentType":5126,
			"count":40,
			"type":"VEC3"
		},
		{
			"bufferView":46,
			"componentType":5126,
			"count":2,
			"type":"VEC4"
		},
		{
			"bufferView":47,
			"componentType":5126,
			"count":2,
			"type":"VEC3"
		},
		{
			"bufferView":48,
			"componentType":5126,
			"count":2,
			"type":"VEC3"
		},
		{
			"bufferView":49,
			"componentType":5126,
			"count":2,
			"type":"VEC4"
		},
		{
			"bufferView":50,
			"componentType":5126,
			"count":40,
			"type":"VEC3"
		}
	],
	"bufferViews":[
		{
			"buffer":0,
			"byteLength":266784,
			"byteOffset":0,
			"target":34962
		},
		{
			"buffer":0,
			"byteLength":266784,
			"byteOffset":266784,
			"target":34962
		},
		{
			"buffer":0,
			"byteLength":177856,
			"byteOffset":533568,
			"target":34962
		},
		{
			"buffer":0,
			"byteLength":88928,
			"byteOffset":711424,
			"target":34962
		},
		{
			"buffer":0,
			"byteLength":355712,
			"byteOffset":800352,
			"target":34962
		},
		{
			"buffer":0,
			"byteLength":231168,
			"byteOffset":1156064,
			"target":34963
		},
		{
			"buffer":0,
			"byteLength":8664,
			"byteOffset":1387232,
			"target":34962
		},
		{
			"buffer":0,
			"byteLength":8664,
			"byteOffset":1395896,
			"target":34962
		},
		{
			"buffer":0,
			"byteLength":5776,
			"byteOffset":1404560,
			"target":34962
		},
		{
			"buffer":0,
			"byteLength":2888,
			"byteOffset":1410336,
			"target":34962
		},
		{
			"buffer":0,
			"byteLength":11552,
			"byteOffset":1413224,
			"target":34962
		},
		{
			"buffer":0,
			"byteLength":6912,
			"byteOffset":1424776,
			"target":34963
		},
		{
			"buffer":0,
			"byteLength":640,
			"byteOffset":1431688
		},
		{
			"buffer":0,
			"byteLength":8,
			"byteOffset":1432328
		},
		{
			"buffer":0,
			"byteLength":24,
			"byteOffset":1432336
		},
		{
			"buffer":0,
			"byteLength":32,
			"byteOffset":1432360
		},
		{
			"buffer":0,
			"byteLength":24,
			"byteOffset":1432392
		},
		{
			"buffer":0,
			"byteLength":24,
			"byteOffset":1432416
		},
		{
			"buffer":0,
			"byteLength":32,
			"byteOffset":1432440
		},
		{
			"buffer":0,
			"byteLength":24,
			"byteOffset":1432472
		},
		{
			"buffer":0,
			"byteLength":24,
			"byteOffset":1432496
		},
		{
			"buffer":0,
			"byteLength":160,
			"byteOffset":1432520
		},
		{
			"buffer":0,
			"byteLength":640,
			"byteOffset":1432680
		},
		{
			"buffer":0,
			"byteLength":24,
			"byteOffset":1433320
		},
		{
			"buffer":0,
			"byteLength":24,
			"byteOffset":1433344
		},
		{
			"buffer":0,
			"byteLength":640,
			"byteOffset":1433368
		},
		{
			"buffer":0,
			"byteLength":24,
			"byteOffset":1434008
		},
		{
			"buffer":0,
			"byteLength":24,
			"byteOffset":1434032
		},
		{
			"buffer":0,
			"byteLength":640,
			"byteOffset":1434056
		},
		{
			"buffer":0,
			"byteLength":24,
			"byteOffset":1434696
		},
		{
			"buffer":0,
			"byteLength":24,
			"byteOffset":1434720
		},
		{
			"buffer":0,
			"byteLength":640,
			"byteOffset":1434744
		},
		{
			"buffer":0,
			"byteLength":24,
			"byteOffset":1435384
		},
		{
			"buffer":0,
			"byteLength":24,
			"byteOffset":1435408
		},
		{
			"buffer":0,
			"byteLength":32,
			"byteOffset":1435432
		},
		{
			"buffer":0,
			"byteLength":24,
			"byteOffset":1435464
		},
		{
			"buffer":0,
			"byteLength":24,
			"byteOffset":1435488
		},
		{
			"buffer":0,
			"byteLength":640,
			"byteOffset":1435512
		},
		{
			"buffer":0,
			"byteLength":24,
			"byteOffset":1436152
		},
		{
			"buffer":0,
			"byteLength":24,
			"byteOffset":1436176
		},
		{
			"buffer":0,
			"byteLength":640,
			"byteOffset":1436200
		},
		{
			"buffer":0,
			"byteLength":24,
			"byteOffset":1436840
		},
		{
			"buffer":0,
			"byteLength":24,
			"byteOffset":1436864
		},
		{
			"buffer":0,
			"byteLength":640,
			"byteOffset":1436888
		},
		{
			"buffer":0,
			"byteLength":24,
			"byteOffset":1437528
		},
		{
			"buffer":0,
			"byteLength":480,
			"byteOffset":1437552
		},
		{
			"buffer":0,
			"byteLength":32,
			"byteOffset":1438032
		},
		{
			"buffer":0,
			"byteLength":24,
			"byteOffset":1438064
		},
		{
			"buffer":0,
			"byteLength":24,
			"byteOffset":1438088
		},
		{
			"buffer":0,
			"byteLength":32,
			"byteOffset":1438112
		},
		{
			"buffer":0,
			"byteLength":480,
			"byteOffset":1438144
		}
	],
	"buffers":[
		{
			"byteLength":1438624,
			"uri":"data:application/octet-stream;base64,"
		}
	]
}
