{
	"asset":{
		"generator":"Khronos glTF Blender I/O v3.6.27",
		"version":"2.0"
	},
	"scene":0,
	"scenes":[
		{
			"name":"Scene",
			"nodes":[
				11
			]
		}
	],
	"nodes":[
		{
			"name":"foot.L",
			"rotation":[
				-0.6944584846496582,
				6.706581189064309e-05,
				0.005985336843878031,
				0.7195078730583191
			],
			"scale":[
				1,
				1.0000001192092896,
				1.0000001192092896
			],
			"translation":[
				3.545619620126672e-08,
				0.853063702583313,
				-1.0244548320770264e-08
			]
		},
		{
			"children":[
				0
			],
			"name":"leg1.L",
			"rotation":[
				0.03028244711458683,
				-0.0007473333389498293,
				-0.022498110309243202,
				0.9992879033088684
			],
			"scale":[
				1,
				1.0000001192092896,
				1
			],
			"translation":[
				-1.8623204312007147e-08,
				0.9242448210716248,
				-2.5551116777933203e-11
			]
		},
		{
			"children":[
				1
			],
			"name":"leg2.L",
			"rotation":[
				0.000365914951544255,
				1.1090371572208824e-06,
				0.01576964184641838,
				0.9998756051063538
			],
			"scale":[
				0.9999999403953552,
				1,
				1
			],
			"translation":[
				1.3559164901977283e-09,
				0.09075970202684402,
				1.9122481376143696e-11
			]
		},
		{
			"children":[
				2
			],
			"name":"bone.L",
			"rotation":[
				2.5761767119547585e-07,
				4.1635811243168064e-08,
				0.9992908239364624,
				0.03765556588768959
			],
			"scale":[
				1.0000079870224,
				0.9999999403953552,
				1
			],
			"translation":[
				-0.3655420243740082,
				0.13519904017448425,
				0.0219293050467968
			]
		},
		{
			"name":"33.001",
			"translation":[
				3.446842811172246e-11,
				0.14856579899787903,
				7.437113147545915e-10
			]
		},
		{
			"name":"foot.R",
			"rotation":[
				-0.6944584846496582,
				-6.706581189064309e-05,
				-0.005985336843878031,
				0.7195078730583191
			],
			"scale":[
				1,
				1.0000001192092896,
				1.0000001192092896
			],
			"translation":[
				-3.545619620126672e-08,
				0.853063702583313,
				-6.51925802230835e-09
			]
		},
		{
			"children":[
				5
			],
			"name":"leg1.R",
			"rotation":[
				0.03028244711458683,
				0.0007473333389498293,
				0.022498110309243202,
				0.9992879033088684
			],
			"scale":[
				1,
				1.0000001192092896,
				1
			],
			"translation":[
				1.862319543022295e-08,
				0.9242448210716248,
				-2.3732127374387346e-11
			]
		},
		{
			"children":[
				6
			],
			"name":"leg2.R",
			"rotation":[
				0.00036591236130334437,
				-1.1090767202404095e-06,
				-0.01576964184641838,
				0.9998756051063538
			],
			"scale":[
				0.9999999403953552,
				1,
				1
			],
			"translation":[
				-1.355917156331543e-09,
				0.09075970202684402,
				-9.380940468872723e-12
			]
		},
		{
			"children":[
				7
			],
			"name":"bone.R",
			"rotation":[
				4.95962069635425e-07,
				-5.319180118590339e-08,
				-0.9992908239364624,
				0.03765556588768959
			],
			"scale":[
				1.0000079870224,
				0.9999999403953552,
				1
			],
			"translation":[
				0.3593033254146576,
				0.13519904017448425,
				0.021929478272795677
			]
		},
		{
			"children":[
				3,
				4,
				8
			],
			"name":"33",
			"rotation":[
				0,
				1.1920928955078125e-07,
				0,
				1
			],
			"translation":[
				0.003119351342320442,
				-0.6057518124580383,
				-0.02260550856590271
			]
		},
		{
			"mesh":0,
			"name":"Plane",
			"skin":0
		},
		{
			"children":[
				10,
				9
			],
			"name":"Armature",
			"translation":[
				0,
				0.8655410408973694,
				0
			]
		}
	],
	"materials":[
		{
			"doubleSided":true,
			"name":"Material.005",
			"pbrMetallicRoughness":{}
		},
		{
			"doubleSided":true,
			"name":"Material.007",
			"pbrMetallicRoughness":{}
		}
	],
	"meshes":[
		{
			"name":"Plane",
			"primitives":[
				{
					"attributes":{
						"POSITION":0,
						"NORMAL":1,
						"TEXCOORD_0":2,
						"JOINTS_0":3,
						"WEIGHTS_0":4
					},
					"indices":5,
					"material":0
				},
				{
					"attributes":{
						"POSITION":6,
						"NORMAL":7,
						"TEXCOORD_0":8,
						"JOINTS_0":9,
						"WEIGHTS_0":10
					},
					"indices":11,
					"material":1
				}
			]
		}
	],
	"skins":[
		{
			"inverseBindMatrices":12,
			"joints":[
				9,
				3,
				2,
				1,
				0,
				4,
				8,
				7,
				6,
				5
			],
			"name":"Armature"
		}
	],
	"accessors":[
		{
			"bufferView":0,
			"componentType":5126,
			"count":19604,
			"max":[
				1.2471058368682861,
				2.7110583782196045,
				0.44745349884033203
			],
			"min":[
				-1.247109055519104,
				-1.6416244506835938,
				-0.9909645318984985
			],
			"type":"VEC3"
		},
		{
			"bufferView":1,
			"componentType":5126,
			"count":19604,
			"type":"VEC3"
		},
		{
			"bufferView":2,
			"componentType":5126,
			"count":19604,
			"type":"VEC2"
		},
		{
			"bufferView":3,
			"componentType":5121,
			"count":19604,
			"type":"VEC4"
		},
		{
			"bufferView":4,
			"componentType":5126,
			"count":19604,
			"type":"VEC4"
		},
		{
			"bufferView":5,
			"componentType":5123,
			"count":115584,
			"type":"SCALAR"
		},
		{
			"bufferView":6,
			"componentType":5126,
			"count":722,
			"max":[
				1.0746742486953735,
				2.5386269092559814,
				0.0033266758546233177
			],
			"min":[
				-1.0746774673461914,
				0.38927507400512695,
				0.003326655365526676
			],
			"type":"VEC3"
		},
		{
			"bufferView":7,
			"componentType":5126,
			"count":722,
			"type":"VEC3"
		},
		{
			"bufferView":8,
			"componentType":5126,
			"count":722,
			"type":"VEC2"
		},
		{
			"bufferView":9,
			"componentType":5121,
			"count":722,
			"type":"VEC4"
		},
		{
			"bufferView":10,
			"componentType":5126,
			"count":722,
			"type":"VEC4"
		},
		{
			"bufferView":11,
			"componentType":5123,
			"count":3456,
			"type":"SCALAR"
		},
		{
			"bufferView":12,
			"componentType":5126,
			"count":10,
			"type":"MAT4"
		}
	],
	"bufferViews":[
		{
			"buffer":0,
			"byteLength":235248,
			"byteOffset":0,
			"target":34962
		},
		{
			"buffer":0,
			"byteLength":235248,
			"byteOffset":235248,
			"target":34962
		},
		{
			"buffer":0,
			"byteLength":156832,
			"byteOffset":470496,
			"target":34962
		},
		{
			"buffer":0,
			"byteLength":78416,
			"byteOffset":627328,
			"target":34962
		},
		{
			"buffer":0,
			"byteLength":313664,
			"byteOffset":705744,
			"target":34962
		},
		{
			"buffer":0,
			"byteLength":231168,
			"byteOffset":1019408,
			"target":34963
		},
		{
			"buffer":0,
			"byteLength":8664,
			"byteOffset":1250576,
			"target":34962
		},
		{
			"buffer":0,
			"byteLength":8664,
			"byteOffset":1259240,
			"target":34962
		},
		{
			"buffer":0,
			"byteLength":5776,
			"byteOffset":1267904,
			"target":34962
		},
		{
			"buffer":0,
			"byteLength":2888,
			"byteOffset":1273680,
			"target":34962
		},
		{
			"buffer":0,
			"byteLength":11552,
			"byteOffset":1276568,
			"target":34962
		},
		{
			"buffer":0,
			"byteLength":6912,
			"byteOffset":1288120,
			"target":34963
		},
		{
			"buffer":0,
			"byteLength":640,
			"byteOffset":1295032
		}
	],
	"buffers":[
		{
			"byteLength":1295672,
			"uri":"data:application/octet-stream;base64,"
		}
	]
}
