{
	"asset":{
		"generator":"Khronos glTF Blender I/O v3.6.27",
		"version":"2.0"
	},
	"scene":0,
	"scenes":[
		{
			"name":"Scene",
			"nodes":[
				17
			]
		}
	],
	"nodes":[
		{
			"name":"Head_L",
			"rotation":[
				-0.09000671654939651,
				-0.0001675626845099032,
				0.021860750392079353,
				0.9957011938095093
			],
			"scale":[
				1,
				0.9999998211860657,
				0.9999999403953552
			],
			"translation":[
				2.2836029529571533e-06,
				3.1789517402648926,
				-7.078051567077637e-07
			]
		},
		{
			"children":[
				0
			],
			"name":"LNeck",
			"rotation":[
				0.17769207060337067,
				-0.020798319950699806,
				0.19828355312347412,
				0.9636787176132202
			],
			"scale":[
				1,
				0.9999999403953552,
				0.9999998807907104
			],
			"translation":[
				6.258487701416016e-07,
				8.253753662109375,
				1.862645149230957e-07
			]
		},
		{
			"children":[
				1
			],
			"name":"LSpine.005",
			"rotation":[
				-0.1003551110625267,
				-0.03415844216942787,
				-0.04090458154678345,
				0.9935234785079956
			],
			"scale":[
				0.9999998807907104,
				1,
				0.9999999403953552
			],
			"translation":[
				2.6635825634002686e-06,
				8.257198333740234,
				-1.1920928955078125e-07
			]
		},
		{
			"children":[
				2
			],
			"name":"Lspine.004",
			"rotation":[
				0.0072428700514137745,
				-0.004786085337400436,
				-0.31142234802246094,
				0.9502319693565369
			],
			"scale":[
				1,
				1.0000001192092896,
				1
			],
			"translation":[
				-4.023313522338867e-07,
				16.49748420715332,
				8.195638656616211e-08
			]
		},
		{
			"children":[
				3
			],
			"name":"LSpine.003",
			"rotation":[
				-0.09371843189001083,
				-0.01044943742454052,
				0.22279977798461914,
				0.9702927470207214
			],
			"scale":[
				0.9999999403953552,
				0.9999999403953552,
				0.9999998807907104
			],
			"translation":[
				-3.073364496231079e-08,
				16.484649658203125,
				-2.2351741790771484e-07
			]
		},
		{
			"children":[
				4
			],
			"name":"LSpine.002",
			"rotation":[
				0.16330662369728088,
				0.0033169288653880358,
				-0.3401145040988922,
				0.9260897040367126
			],
			"scale":[
				0.9999999403953552,
				0.9999998211860657,
				1
			],
			"translation":[
				3.4691765904426575e-08,
				10.696327209472656,
				-1.4156103134155273e-07
			]
		},
		{
			"children":[
				5
			],
			"name":"LSpine.001",
			"rotation":[
				-0.08174742758274078,
				-0.013697218149900436,
				0.17215989530086517,
				0.981575608253479
			],
			"translation":[
				1.2805759906768799,
				0.6556931734085083,
				-2.8413039032670895e-08
			]
		},
		{
			"name":"Head_R",
			"rotation":[
				0.020775867626070976,
				0.000930656970012933,
				-0.0033877959940582514,
				0.9997779726982117
			],
			"scale":[
				1,
				1,
				1.0000001192092896
			],
			"translation":[
				3.6600977182388306e-07,
				3.162980318069458,
				-9.648501873016357e-07
			]
		},
		{
			"children":[
				7
			],
			"name":"RNeck",
			"rotation":[
				-0.09445905685424805,
				0.007918572053313255,
				-0.23837772011756897,
				0.9665355086326599
			],
			"scale":[
				1,
				1,
				0.9999997615814209
			],
			"translation":[
				4.33996319770813e-06,
				8.26284408569336,
				-4.76837158203125e-07
			]
		},
		{
			"children":[
				8
			],
			"name":"RSpine.005",
			"rotation":[
				0.08869731426239014,
				0.00573685159906745,
				0.06159130111336708,
				0.9941360354423523
			],
			"scale":[
				1,
				1,
				0.9999998211860657
			],
			"translation":[
				-2.9802322387695312e-06,
				8.255889892578125,
				-1.1920928955078125e-07
			]
		},
		{
			"children":[
				9
			],
			"name":"RSpine.004",
			"rotation":[
				-0.03669404983520508,
				0.041815031319856644,
				0.30875539779663086,
				0.9495131373405457
			],
			"scale":[
				1.0000001192092896,
				1,
				0.9999998807907104
			],
			"translation":[
				-5.960464477539063e-08,
				16.494028091430664,
				3.3527612686157227e-08
			]
		},
		{
			"children":[
				10
			],
			"name":"RSpine.003",
			"rotation":[
				0.09020452201366425,
				0.041044995188713074,
				-0.22028349339962006,
				0.9703883528709412
			],
			"translation":[
				5.206093192100525e-07,
				16.471193313598633,
				4.470348358154297e-08
			]
		},
		{
			"children":[
				11
			],
			"name":"RSpine.002",
			"rotation":[
				-0.1573195904493332,
				-0.006305646616965532,
				0.3423921763896942,
				0.9262712597846985
			],
			"scale":[
				0.9999998807907104,
				0.9999999403953552,
				1
			],
			"translation":[
				-3.993045538663864e-07,
				10.700142860412598,
				-1.8440186977386475e-07
			]
		},
		{
			"children":[
				12
			],
			"name":"RSpine.001",
			"rotation":[
				0.08256588131189346,
				-0.015130837447941303,
				-0.17224939167499542,
				0.9814703464508057
			],
			"scale":[
				1.0000001192092896,
				0.9999999403953552,
				1.0000001192092896
			],
			"translation":[
				-1.2805759906768799,
				0.6556931734085083,
				-2.8413039032670895e-08
			]
		},
		{
			"children":[
				6,
				13
			],
			"name":"AllCtrl"
		},
		{
			"name":"neutral_bone",
			"rotation":[
				-0.7071067690849304,
				0,
				0,
				0.7071067690849304
			]
		},
		{
			"mesh":0,
			"name":"L_Face",
			"skin":0
		},
		{
			"children":[
				16,
				14,
				15
			],
			"name":"Armature.001",
			"scale":[
				0.0609278678894043,
				0.0609278678894043,
				0.0609278678894043
			]
		}
	],
	"materials":[
		{
			"doubleSided":true,
			"name":"Material.005",
			"pbrMetallicRoughness":{}
		},
		{
			"doubleSided":true,
			"name":"Face",
			"pbrMetallicRoughness":{}
		},
		{
			"doubleSided":true,
			"name":"Eyes",
			"pbrMetallicRoughness":{
				"baseColorFactor":[
					0,
					0,
					0,
					1
				],
				"metallicFactor":0,
				"roughnessFactor":0.5
			}
		},
		{
			"doubleSided":true,
			"name":"lips",
			"pbrMetallicRoughness":{
				"baseColorFactor":[
					0.962490975856781,
					0.34449487924575806,
					0,
					1
				],
				"metallicFactor":0,
				"roughnessFactor":0.5
			}
		}
	],
	"meshes":[
		{
			"name":"Cylinder",
			"primitives":[
				{
					"attributes":{
						"POSITION":0,
						"NORMAL":1,
						"TEXCOORD_0":2,
						"JOINTS_0":3,
						"WEIGHTS_0":4
					},
					"indices":5,
					"material":0
				},
				{
					"attributes":{
						"POSITION":6,
						"NORMAL":7,
						"TEXCOORD_0":8,
						"JOINTS_0":9,
						"WEIGHTS_0":10
					},
					"indices":11,
					"material":1
				},
				{
					"attributes":{
						"POSITION":12,
						"NORMAL":13,
						"TEXCOORD_0":14,
						"JOINTS_0":15,
						"WEIGHTS_0":16
					},
					"indices":17,
					"material":0
				},
				{
					"attributes":{
						"POSITION":18,
						"NORMAL":19,
						"TEXCOORD_0":20,
						"JOINTS_0":21,
						"WEIGHTS_0":22
					},
					"indices":23,
					"material":1
				},
				{
					"attributes":{
						"POSITION":24,
						"NORMAL":25,
						"TEXCOORD_0":26,
						"JOINTS_0":27,
						"WEIGHTS_0":28
					},
					"indices":29,
					"material":2
				},
				{
					"attributes":{
						"POSITION":30,
						"NORMAL":31,
						"TEXCOORD_0":32,
						"JOINTS_0":33,
						"WEIGHTS_0":34
					},
					"indices":35,
					"material":3
				}
			]
		}
	],
	"skins":[
		{
			"inverseBindMatrices":36,
			"joints":[
				14,
				6,
				5,
				4,
				3,
				2,
				1,
				0,
				13,
				12,
				11,
				10,
				9,
				8,
				7,
				15
			],
			"name":"Armature.001"
		}
	],
	"accessors":[
		{
			"bufferView":0,
			"componentType":5126,
			"count":4744,
			"max":[
				0.7408768534660339,
				3.834878444671631,
				0.17408455908298492
			],
			"min":[
				-0.737692654132843,
				-0.025741321966052055,
				-0.17909787595272064
			],
			"type":"VEC3"
		},
		{
			"bufferView":1,
			"componentType":5126,
			"count":4744,
			"type":"VEC3"
		},
		{
			"bufferView":2,
			"componentType":5126,
			"count":4744,
			"type":"VEC2"
		},
		{
			"bufferView":3,
			"componentType":5121,
			"count":4744,
			"type":"VEC4"
		},
		{
			"bufferView":4,
			"componentType":5126,
			"count":4744,
			"type":"VEC4"
		},
		{
			"bufferView":5,
			"componentType":5123,
			"count":26016,
			"type":"SCALAR"
		},
		{
			"bufferView":6,
			"componentType":5126,
			"count":1673,
			"max":[
				1.4390066862106323,
				4.675666332244873,
				0.11189155280590057
			],
			"min":[
				-0.05977310240268707,
				3.3368051052093506,
				-0.1988840252161026
			],
			"type":"VEC3"
		},
		{
			"bufferView":7,
			"componentType":5126,
			"count":1673,
			"type":"VEC3"
		},
		{
			"bufferView":8,
			"componentType":5126,
			"count":1673,
			"type":"VEC2"
		},
		{
			"bufferView":9,
			"componentType":5121,
			"count":1673,
			"type":"VEC4"
		},
		{
			"bufferView":10,
			"componentType":5126,
			"count":1673,
			"type":"VEC4"
		},
		{
			"bufferView":11,
			"componentType":5123,
			"count":9300,
			"type":"SCALAR"
		},
		{
			"bufferView":12,
			"componentType":5126,
			"count":64,
			"max":[
				-0.5578871965408325,
				3.837869882583618,
				-0.14127890765666962
			],
			"min":[
				-0.7077505588531494,
				3.797140121459961,
				-0.14354310929775238
			],
			"type":"VEC3"
		},
		{
			"bufferView":13,
			"componentType":5126,
			"count":64,
			"type":"VEC3"
		},
		{
			"bufferView":14,
			"componentType":5126,
			"count":64,
			"type":"VEC2"
		},
		{
			"bufferView":15,
			"componentType":5121,
			"count":64,
			"type":"VEC4"
		},
		{
			"bufferView":16,
			"componentType":5126,
			"count":64,
			"type":"VEC4"
		},
		{
			"bufferView":17,
			"componentType":5123,
			"count":180,
			"type":"SCALAR"
		},
		{
			"bufferView":18,
			"componentType":5126,
			"count":1673,
			"max":[
				0.050709549337625504,
				4.681500434875488,
				0.12457301467657089
			],
			"min":[
				-1.4863406419754028,
				3.2956154346466064,
				-0.18879567086696625
			],
			"type":"VEC3"
		},
		{
			"bufferView":19,
			"componentType":5126,
			"count":1673,
			"type":"VEC3"
		},
		{
			"bufferView":20,
			"componentType":5126,
			"count":1673,
			"type":"VEC2"
		},
		{
			"bufferView":21,
			"componentType":5121,
			"count":1673,
			"type":"VEC4"
		},
		{
			"bufferView":22,
			"componentType":5126,
			"count":1673,
			"type":"VEC4"
		},
		{
			"bufferView":23,
			"componentType":5123,
			"count":9300,
			"type":"SCALAR"
		},
		{
			"bufferView":24,
			"componentType":5126,
			"count":1968,
			"max":[
				0.9461557269096375,
				4.1083550453186035,
				-0.126963809132576
			],
			"min":[
				-0.9218917489051819,
				3.9861319065093994,
				-0.1567104309797287
			],
			"type":"VEC3"
		},
		{
			"bufferView":25,
			"componentType":5126,
			"count":1968,
			"type":"VEC3"
		},
		{
			"bufferView":26,
			"componentType":5126,
			"count":1968,
			"type":"VEC2"
		},
		{
			"bufferView":27,
			"componentType":5121,
			"count":1968,
			"type":"VEC4"
		},
		{
			"bufferView":28,
			"componentType":5126,
			"count":1968,
			"type":"VEC4"
		},
		{
			"bufferView":29,
			"componentType":5123,
			"count":10320,
			"type":"SCALAR"
		},
		{
			"bufferView":30,
			"componentType":5126,
			"count":792,
			"max":[
				0.7408768534660339,
				3.8576486110687256,
				-0.11577320098876953
			],
			"min":[
				-0.7077505588531494,
				3.744795799255371,
				-0.1709018051624298
			],
			"type":"VEC3"
		},
		{
			"bufferView":31,
			"componentType":5126,
			"count":792,
			"type":"VEC3"
		},
		{
			"bufferView":32,
			"componentType":5126,
			"count":792,
			"type":"VEC2"
		},
		{
			"bufferView":33,
			"componentType":5121,
			"count":792,
			"type":"VEC4"
		},
		{
			"bufferView":34,
			"componentType":5126,
			"count":792,
			"type":"VEC4"
		},
		{
			"bufferView":35,
			"componentType":5123,
			"count":4608,
			"type":"SCALAR"
		},
		{
			"bufferView":36,
			"componentType":5126,
			"count":16,
			"type":"MAT4"
		}
	],
	"bufferViews":[
		{
			"buffer":0,
			"byteLength":56928,
			"byteOffset":0,
			"target":34962
		},
		{
			"buffer":0,
			"byteLength":56928,
			"byteOffset":56928,
			"target":34962
		},
		{
			"buffer":0,
			"byteLength":37952,
			"byteOffset":113856,
			"target":34962
		},
		{
			"buffer":0,
			"byteLength":18976,
			"byteOffset":151808,
			"target":34962
		},
		{
			"buffer":0,
			"byteLength":75904,
			"byteOffset":170784,
			"target":34962
		},
		{
			"buffer":0,
			"byteLength":52032,
			"byteOffset":246688,
			"target":34963
		},
		{
			"buffer":0,
			"byteLength":20076,
			"byteOffset":298720,
			"target":34962
		},
		{
			"buffer":0,
			"byteLength":20076,
			"byteOffset":318796,
			"target":34962
		},
		{
			"buffer":0,
			"byteLength":13384,
			"byteOffset":338872,
			"target":34962
		},
		{
			"buffer":0,
			"byteLength":6692,
			"byteOffset":352256,
			"target":34962
		},
		{
			"buffer":0,
			"byteLength":26768,
			"byteOffset":358948,
			"target":34962
		},
		{
			"buffer":0,
			"byteLength":18600,
			"byteOffset":385716,
			"target":34963
		},
		{
			"buffer":0,
			"byteLength":768,
			"byteOffset":404316,
			"target":34962
		},
		{
			"buffer":0,
			"byteLength":768,
			"byteOffset":405084,
			"target":34962
		},
		{
			"buffer":0,
			"byteLength":512,
			"byteOffset":405852,
			"target":34962
		},
		{
			"buffer":0,
			"byteLength":256,
			"byteOffset":406364,
			"target":34962
		},
		{
			"buffer":0,
			"byteLength":1024,
			"byteOffset":406620,
			"target":34962
		},
		{
			"buffer":0,
			"byteLength":360,
			"byteOffset":407644,
			"target":34963
		},
		{
			"buffer":0,
			"byteLength":20076,
			"byteOffset":408004,
			"target":34962
		},
		{
			"buffer":0,
			"byteLength":20076,
			"byteOffset":428080,
			"target":34962
		},
		{
			"buffer":0,
			"byteLength":13384,
			"byteOffset":448156,
			"target":34962
		},
		{
			"buffer":0,
			"byteLength":6692,
			"byteOffset":461540,
			"target":34962
		},
		{
			"buffer":0,
			"byteLength":26768,
			"byteOffset":468232,
			"target":34962
		},
		{
			"buffer":0,
			"byteLength":18600,
			"byteOffset":495000,
			"target":34963
		},
		{
			"buffer":0,
			"byteLength":23616,
			"byteOffset":513600,
			"target":34962
		},
		{
			"buffer":0,
			"byteLength":23616,
			"byteOffset":537216,
			"target":34962
		},
		{
			"buffer":0,
			"byteLength":15744,
			"byteOffset":560832,
			"target":34962
		},
		{
			"buffer":0,
			"byteLength":7872,
			"byteOffset":576576,
			"target":34962
		},
		{
			"buffer":0,
			"byteLength":31488,
			"byteOffset":584448,
			"target":34962
		},
		{
			"buffer":0,
			"byteLength":20640,
			"byteOffset":615936,
			"target":34963
		},
		{
			"buffer":0,
			"byteLength":9504,
			"byteOffset":636576,
			"target":34962
		},
		{
			"buffer":0,
			"byteLength":9504,
			"byteOffset":646080,
			"target":34962
		},
		{
			"buffer":0,
			"byteLength":6336,
			"byteOffset":655584,
			"target":34962
		},
		{
			"buffer":0,
			"byteLength":3168,
			"byteOffset":661920,
			"target":34962
		},
		{
			"buffer":0,
			"byteLength":12672,
			"byteOffset":665088,
			"target":34962
		},
		{
			"buffer":0,
			"byteLength":9216,
			"byteOffset":677760,
			"target":34963
		},
		{
			"buffer":0,
			"byteLength":1024,
			"byteOffset":686976
		}
	],
	"buffers":[
		{
			"byteLength":688000,
			"uri":"data:application/octet-stream;base64,"
		}
	]
}
