{
	"asset":{
		"generator":"Khronos glTF Blender I/O v3.6.27",
		"version":"2.0"
	},
	"extensionsUsed":[
		"KHR_materials_specular",
		"KHR_materials_ior"
	],
	"scene":0,
	"scenes":[
		{
			"name":"Scene",
			"nodes":[
				13
			]
		}
	],
	"nodes":[
		{
			"name":"ear3.L",
			"rotation":[
				4.798570429898064e-10,
				2.5309686790819796e-08,
				-0.011538537219166756,
				0.9999334216117859
			],
			"scale":[
				1,
				1.0000001192092896,
				1
			],
			"translation":[
				-3.352760558072987e-08,
				0.6069838404655457,
				1.2434497875801753e-14
			]
		},
		{
			"children":[
				0
			],
			"name":"ear2.L",
			"rotation":[
				2.6688432019916775e-10,
				3.3837896928901046e-09,
				-0.020706530660390854,
				0.9997856616973877
			],
			"scale":[
				1,
				0.9999998807907104,
				1
			],
			"translation":[
				-2.9802320611338473e-08,
				0.1343330293893814,
				2.1316282072803006e-14
			]
		},
		{
			"children":[
				1
			],
			"name":"ear1.L",
			"rotation":[
				-6.680681252646536e-08,
				1.7834803855976133e-08,
				0.19611606001853943,
				0.980580747127533
			],
			"translation":[
				-0.273328959941864,
				0.7137296199798584,
				-2.0066128314510934e-08
			]
		},
		{
			"name":"leg2.L",
			"rotation":[
				1.785065961712462e-08,
				-9.739005690789782e-08,
				0.08196546137332916,
				0.9966351985931396
			],
			"translation":[
				1.4901168299275014e-08,
				0.09528960287570953,
				-9.769962616701378e-15
			]
		},
		{
			"children":[
				3
			],
			"name":"leg1.L",
			"rotation":[
				4.29908624255404e-08,
				5.158983285014074e-08,
				0.973249077796936,
				0.2297525554895401
			],
			"scale":[
				1.0000007152557373,
				1,
				1
			],
			"translation":[
				-0.5208472013473511,
				-0.23582851886749268,
				1.0751539036846225e-07
			]
		},
		{
			"name":"ear3.R",
			"rotation":[
				4.798570429898064e-10,
				-2.5309686790819796e-08,
				0.011538537219166756,
				0.9999334216117859
			],
			"scale":[
				1,
				1.0000001192092896,
				1
			],
			"translation":[
				3.352760558072987e-08,
				0.6069838404655457,
				1.2434497875801753e-14
			]
		},
		{
			"children":[
				5
			],
			"name":"ear2.R",
			"rotation":[
				2.6688432019916775e-10,
				-3.3837896928901046e-09,
				0.020706530660390854,
				0.9997856616973877
			],
			"scale":[
				1,
				0.9999998807907104,
				1
			],
			"translation":[
				2.9802320611338473e-08,
				0.1343330293893814,
				2.1316282072803006e-14
			]
		},
		{
			"children":[
				6
			],
			"name":"ear1.R",
			"rotation":[
				-6.680681252646536e-08,
				-1.7834803855976133e-08,
				-0.19611606001853943,
				0.980580747127533
			],
			"translation":[
				0.273328959941864,
				0.7137296199798584,
				-2.0066128314510934e-08
			]
		},
		{
			"name":"leg2.R",
			"rotation":[
				1.785065961712462e-08,
				9.739005690789782e-08,
				-0.08196546137332916,
				0.9966351985931396
			],
			"translation":[
				-1.4901168299275014e-08,
				0.09528960287570953,
				-9.769962616701378e-15
			]
		},
		{
			"children":[
				8
			],
			"name":"leg1.R",
			"rotation":[
				4.29908624255404e-08,
				-5.158983285014074e-08,
				-0.973249077796936,
				0.2297525554895401
			],
			"scale":[
				1.0000007152557373,
				1,
				1
			],
			"translation":[
				0.5208472013473511,
				-0.23582851886749268,
				1.0751539036846225e-07
			]
		},
		{
			"children":[
				2,
				4,
				7,
				9
			],
			"name":"Bone"
		},
		{
			"mesh":0,
			"name":"Cube",
			"skin":0
		},
		{
			"mesh":1,
			"name":"Cube.001",
			"skin":0
		},
		{
			"children":[
				11,
				12,
				10
			],
			"name":"Armature",
			"translation":[
				0,
				0.1467842310667038,
				0
			]
		}
	],
	"materials":[
		{
			"doubleSided":true,
			"name":"Body",
			"pbrMetallicRoughness":{}
		},
		{
			"doubleSided":true,
			"extensions":{
				"KHR_materials_specular":{
					"specularColorFactor":[
						0.711407312601205,
						0.711407312601205,
						0.711407312601205
					]
				},
				"KHR_materials_ior":{
					"ior":1.4500000476837158
				}
			},
			"name":"Eyes",
			"normalTexture":{
				"index":0
			},
			"pbrMetallicRoughness":{
				"metallicFactor":0,
				"metallicRoughnessTexture":{
					"index":1
				}
			}
		},
		{
			"doubleSided":true,
			"extensions":{
				"KHR_materials_specular":{
					"specularColorFactor":[
						0.711407312601205,
						0.711407312601205,
						0.711407312601205
					]
				},
				"KHR_materials_ior":{
					"ior":1.4500000476837158
				}
			},
			"name":"Iris",
			"normalTexture":{
				"index":2
			},
			"pbrMetallicRoughness":{
				"baseColorFactor":[
					0,
					0,
					0,
					1
				],
				"metallicFactor":0,
				"metallicRoughnessTexture":{
					"index":3
				}
			}
		},
		{
			"doubleSided":true,
			"name":"Material.001",
			"pbrMetallicRoughness":{}
		}
	],
	"meshes":[
		{
			"name":"Cube",
			"primitives":[
				{
					"attributes":{
						"POSITION":0,
						"NORMAL":1,
						"TEXCOORD_0":2,
						"JOINTS_0":3,
						"WEIGHTS_0":4
					},
					"indices":5,
					"material":0
				},
				{
					"attributes":{
						"POSITION":6,
						"NORMAL":7,
						"TEXCOORD_0":8,
						"JOINTS_0":9,
						"WEIGHTS_0":10
					},
					"indices":11,
					"material":1
				},
				{
					"attributes":{
						"POSITION":12,
						"NORMAL":13,
						"TEXCOORD_0":14,
						"JOINTS_0":15,
						"WEIGHTS_0":16
					},
					"indices":11,
					"material":2
				}
			]
		},
		{
			"name":"Cube.001",
			"primitives":[
				{
					"attributes":{
						"POSITION":18,
						"NORMAL":19,
						"TEXCOORD_0":20,
						"JOINTS_0":21,
						"WEIGHTS_0":22
					},
					"indices":23,
					"material":3
				}
			]
		}
	],
	"textures":[
		{
			"sampler":0,
			"source":0
		},
		{
			"sampler":0,
			"source":1
		},
		{
			"sampler":0,
			"source":0
		},
		{
			"sampler":0,
			"source":1
		}
	],
	"images":[
		{
			"bufferView":12,
			"mimeType":"image/png",
			"name":"Fingerprints01_2K.png"
		},
		{
			"bufferView":13,
			"mimeType":"image/png",
			"name":"Fingerprints01_2K.png"
		}
	],
	"skins":[
		{
			"inverseBindMatrices":17,
			"joints":[
				10,
				2,
				1,
				0,
				4,
				3,
				7,
				6,
				5,
				9,
				8
			],
			"name":"Armature"
		}
	],
	"accessors":[
		{
			"bufferView":0,
			"componentType":5126,
			"count":5218,
			"max":[
				0.9398273229598999,
				2.3467650413513184,
				0.6253497004508972
			],
			"min":[
				-0.9398273229598999,
				-0.5802270174026489,
				-0.6253496408462524
			],
			"type":"VEC3"
		},
		{
			"bufferView":1,
			"componentType":5126,
			"count":5218,
			"type":"VEC3"
		},
		{
			"bufferView":2,
			"componentType":5126,
			"count":5218,
			"type":"VEC2"
		},
		{
			"bufferView":3,
			"componentType":5121,
			"count":5218,
			"type":"VEC4"
		},
		{
			"bufferView":4,
			"componentType":5126,
			"count":5218,
			"type":"VEC4"
		},
		{
			"bufferView":5,
			"componentType":5123,
			"count":26112,
			"type":"SCALAR"
		},
		{
			"bufferView":6,
			"componentType":5126,
			"count":2098,
			"max":[
				0.5512199401855469,
				0.7321165800094604,
				-0.3004646897315979
			],
			"min":[
				-0.5512199401855469,
				0.26075875759124756,
				-0.7375530004501343
			],
			"type":"VEC3"
		},
		{
			"bufferView":7,
			"componentType":5126,
			"count":2098,
			"type":"VEC3"
		},
		{
			"bufferView":8,
			"componentType":5126,
			"count":2098,
			"type":"VEC2"
		},
		{
			"bufferView":9,
			"componentType":5121,
			"count":2098,
			"type":"VEC4"
		},
		{
			"bufferView":10,
			"componentType":5126,
			"count":2098,
			"type":"VEC4"
		},
		{
			"bufferView":11,
			"componentType":5123,
			"count":11520,
			"type":"SCALAR"
		},
		{
			"bufferView":14,
			"componentType":5126,
			"count":2098,
			"max":[
				0.434777170419693,
				0.7020912766456604,
				-0.6053568124771118
			],
			"min":[
				-0.43477702140808105,
				0.4766652286052704,
				-0.7488210201263428
			],
			"type":"VEC3"
		},
		{
			"bufferView":15,
			"componentType":5126,
			"count":2098,
			"type":"VEC3"
		},
		{
			"bufferView":16,
			"componentType":5126,
			"count":2098,
			"type":"VEC2"
		},
		{
			"bufferView":17,
			"componentType":5121,
			"count":2098,
			"type":"VEC4"
		},
		{
			"bufferView":18,
			"componentType":5126,
			"count":2098,
			"type":"VEC4"
		},
		{
			"bufferView":19,
			"componentType":5126,
			"count":11,
			"type":"MAT4"
		},
		{
			"bufferView":20,
			"componentType":5126,
			"count":3716,
			"max":[
				0.699255108833313,
				2.003452777862549,
				0.016052767634391785
			],
			"min":[
				-0.699255108833313,
				1.0911369323730469,
				-0.11037931591272354
			],
			"type":"VEC3"
		},
		{
			"bufferView":21,
			"componentType":5126,
			"count":3716,
			"type":"VEC3"
		},
		{
			"bufferView":22,
			"componentType":5126,
			"count":3716,
			"type":"VEC2"
		},
		{
			"bufferView":23,
			"componentType":5121,
			"count":3716,
			"type":"VEC4"
		},
		{
			"bufferView":24,
			"componentType":5126,
			"count":3716,
			"type":"VEC4"
		},
		{
			"bufferView":25,
			"componentType":5123,
			"count":20448,
			"type":"SCALAR"
		}
	],
	"bufferViews":[
		{
			"buffer":0,
			"byteLength":62616,
			"byteOffset":0,
			"target":34962
		},
		{
			"buffer":0,
			"byteLength":62616,
			"byteOffset":62616,
			"target":34962
		},
		{
			"buffer":0,
			"byteLength":41744,
			"byteOffset":125232,
			"target":34962
		},
		{
			"buffer":0,
			"byteLength":20872,
			"byteOffset":166976,
			"target":34962
		},
		{
			"buffer":0,
			"byteLength":83488,
			"byteOffset":187848,
			"target":34962
		},
		{
			"buffer":0,
			"byteLength":52224,
			"byteOffset":271336,
			"target":34963
		},
		{
			"buffer":0,
			"byteLength":25176,
			"byteOffset":323560,
			"target":34962
		},
		{
			"buffer":0,
			"byteLength":25176,
			"byteOffset":348736,
			"target":34962
		},
		{
			"buffer":0,
			"byteLength":16784,
			"byteOffset":373912,
			"target":34962
		},
		{
			"buffer":0,
			"byteLength":8392,
			"byteOffset":390696,
			"target":34962
		},
		{
			"buffer":0,
			"byteLength":33568,
			"byteOffset":399088,
			"target":34962
		},
		{
			"buffer":0,
			"byteLength":23040,
			"byteOffset":432656,
			"target":34963
		},
		{
			"buffer":0,
			"byteLength":34665,
			"byteOffset":455696
		},
		{
			"buffer":0,
			"byteLength":33058,
			"byteOffset":490364
		},
		{
			"buffer":0,
			"byteLength":25176,
			"byteOffset":523424,
			"target":34962
		},
		{
			"buffer":0,
			"byteLength":25176,
			"byteOffset":548600,
			"target":34962
		},
		{
			"buffer":0,
			"byteLength":16784,
			"byteOffset":573776,
			"target":34962
		},
		{
			"buffer":0,
			"byteLength":8392,
			"byteOffset":590560,
			"target":34962
		},
		{
			"buffer":0,
			"byteLength":33568,
			"byteOffset":598952,
			"target":34962
		},
		{
			"buffer":0,
			"byteLength":704,
			"byteOffset":632520
		},
		{
			"buffer":0,
			"byteLength":44592,
			"byteOffset":633224,
			"target":34962
		},
		{
			"buffer":0,
			"byteLength":44592,
			"byteOffset":677816,
			"target":34962
		},
		{
			"buffer":0,
			"byteLength":29728,
			"byteOffset":722408,
			"target":34962
		},
		{
			"buffer":0,
			"byteLength":14864,
			"byteOffset":752136,
			"target":34962
		},
		{
			"buffer":0,
			"byteLength":59456,
			"byteOffset":767000,
			"target":34962
		},
		{
			"buffer":0,
			"byteLength":40896,
			"byteOffset":826456,
			"target":34963
		}
	],
	"samplers":[
		{
			"magFilter":9729,
			"minFilter":9987
		}
	],
	"buffers":[
		{
			"byteLength":867352,
			"uri":"data:application/octet-stream;base64,"
		}
	]
}
